<mxfile host="app.diagrams.net" modified="2024-04-16T10:30:11.223Z" agent="Mozilla/5.0 (X11; Linux x86_64) AppleWebKit/537.36 (KHTML, like Gecko) Chrome/123.0.0.0 Safari/537.36" etag="97ADQoqdksNT3S3FCXIw" version="24.2.1" type="device">
  <diagram id="C5RBs43oDa-KdzZeNtuy" name="Page-1">
    <mxGraphModel dx="2191" dy="793" grid="1" gridSize="10" guides="1" tooltips="1" connect="1" arrows="1" fold="1" page="1" pageScale="1" pageWidth="827" pageHeight="1169" math="0" shadow="0">
      <root>
        <mxCell id="WIyWlLk6GJQsqaUBKTNV-0" />
        <mxCell id="WIyWlLk6GJQsqaUBKTNV-1" parent="WIyWlLk6GJQsqaUBKTNV-0" />
        <mxCell id="WIyWlLk6GJQsqaUBKTNV-2" value="" style="rounded=0;html=1;jettySize=auto;orthogonalLoop=1;fontSize=11;endArrow=block;endFill=0;endSize=8;strokeWidth=1;shadow=0;labelBackgroundColor=none;edgeStyle=orthogonalEdgeStyle;" parent="WIyWlLk6GJQsqaUBKTNV-1" source="WIyWlLk6GJQsqaUBKTNV-3" edge="1">
          <mxGeometry relative="1" as="geometry">
            <mxPoint x="220" y="170" as="targetPoint" />
          </mxGeometry>
        </mxCell>
        <mxCell id="WIyWlLk6GJQsqaUBKTNV-3" value="시작" style="rounded=1;whiteSpace=wrap;html=1;fontSize=12;glass=0;strokeWidth=1;shadow=0;" parent="WIyWlLk6GJQsqaUBKTNV-1" vertex="1">
          <mxGeometry x="160" y="80" width="120" height="40" as="geometry" />
        </mxCell>
        <mxCell id="pj7tW2o4S6UGBjeSqYa8-2" value="" style="edgeStyle=orthogonalEdgeStyle;rounded=0;orthogonalLoop=1;jettySize=auto;html=1;" parent="WIyWlLk6GJQsqaUBKTNV-1" source="pj7tW2o4S6UGBjeSqYa8-0" target="pj7tW2o4S6UGBjeSqYa8-1" edge="1">
          <mxGeometry relative="1" as="geometry" />
        </mxCell>
        <mxCell id="pj7tW2o4S6UGBjeSqYa8-0" value="이름 입력" style="shape=parallelogram;perimeter=parallelogramPerimeter;whiteSpace=wrap;html=1;fixedSize=1;" parent="WIyWlLk6GJQsqaUBKTNV-1" vertex="1">
          <mxGeometry x="160" y="180" width="120" height="60" as="geometry" />
        </mxCell>
        <mxCell id="pj7tW2o4S6UGBjeSqYa8-4" value="" style="edgeStyle=orthogonalEdgeStyle;rounded=0;orthogonalLoop=1;jettySize=auto;html=1;" parent="WIyWlLk6GJQsqaUBKTNV-1" source="pj7tW2o4S6UGBjeSqYa8-1" target="pj7tW2o4S6UGBjeSqYa8-3" edge="1">
          <mxGeometry relative="1" as="geometry" />
        </mxCell>
        <mxCell id="pj7tW2o4S6UGBjeSqYa8-1" value="&amp;nbsp;랜덤 수치 발생 * 5&lt;div&gt;+(3500~+3500 이하 랜덤 수치값으로한다.)&lt;/div&gt;" style="whiteSpace=wrap;html=1;" parent="WIyWlLk6GJQsqaUBKTNV-1" vertex="1">
          <mxGeometry x="160" y="320" width="120" height="60" as="geometry" />
        </mxCell>
        <mxCell id="pj7tW2o4S6UGBjeSqYa8-6" value="" style="edgeStyle=orthogonalEdgeStyle;rounded=0;orthogonalLoop=1;jettySize=auto;html=1;" parent="WIyWlLk6GJQsqaUBKTNV-1" source="pj7tW2o4S6UGBjeSqYa8-3" edge="1">
          <mxGeometry relative="1" as="geometry">
            <mxPoint x="220" y="600" as="targetPoint" />
          </mxGeometry>
        </mxCell>
        <mxCell id="pj7tW2o4S6UGBjeSqYa8-3" value="이벤트 발생&lt;div&gt;랜덤수치 * (1.0~5.0)&lt;/div&gt;" style="whiteSpace=wrap;html=1;" parent="WIyWlLk6GJQsqaUBKTNV-1" vertex="1">
          <mxGeometry x="160" y="460" width="120" height="60" as="geometry" />
        </mxCell>
        <mxCell id="pj7tW2o4S6UGBjeSqYa8-9" value="" style="edgeStyle=orthogonalEdgeStyle;rounded=0;orthogonalLoop=1;jettySize=auto;html=1;" parent="WIyWlLk6GJQsqaUBKTNV-1" source="pj7tW2o4S6UGBjeSqYa8-7" target="pj7tW2o4S6UGBjeSqYa8-8" edge="1">
          <mxGeometry relative="1" as="geometry" />
        </mxCell>
        <mxCell id="pj7tW2o4S6UGBjeSqYa8-7" value="랜덤수치 결과 출력" style="shape=document;whiteSpace=wrap;html=1;boundedLbl=1;" parent="WIyWlLk6GJQsqaUBKTNV-1" vertex="1">
          <mxGeometry x="160" y="600" width="120" height="80" as="geometry" />
        </mxCell>
        <mxCell id="pj7tW2o4S6UGBjeSqYa8-11" value="" style="edgeStyle=orthogonalEdgeStyle;rounded=0;orthogonalLoop=1;jettySize=auto;html=1;" parent="WIyWlLk6GJQsqaUBKTNV-1" source="pj7tW2o4S6UGBjeSqYa8-8" target="pj7tW2o4S6UGBjeSqYa8-10" edge="1">
          <mxGeometry relative="1" as="geometry" />
        </mxCell>
        <mxCell id="pj7tW2o4S6UGBjeSqYa8-8" value="턴마무리&lt;div&gt;다음턴 진행 의사 확인&lt;/div&gt;&lt;div&gt;&lt;br&gt;&lt;/div&gt;" style="whiteSpace=wrap;html=1;" parent="WIyWlLk6GJQsqaUBKTNV-1" vertex="1">
          <mxGeometry x="160" y="770" width="120" height="60" as="geometry" />
        </mxCell>
        <mxCell id="pj7tW2o4S6UGBjeSqYa8-17" value="" style="edgeStyle=orthogonalEdgeStyle;rounded=0;orthogonalLoop=1;jettySize=auto;html=1;" parent="WIyWlLk6GJQsqaUBKTNV-1" source="pj7tW2o4S6UGBjeSqYa8-10" target="pj7tW2o4S6UGBjeSqYa8-16" edge="1">
          <mxGeometry relative="1" as="geometry" />
        </mxCell>
        <mxCell id="pj7tW2o4S6UGBjeSqYa8-30" value="" style="edgeStyle=orthogonalEdgeStyle;rounded=0;orthogonalLoop=1;jettySize=auto;html=1;" parent="WIyWlLk6GJQsqaUBKTNV-1" source="pj7tW2o4S6UGBjeSqYa8-10" target="pj7tW2o4S6UGBjeSqYa8-29" edge="1">
          <mxGeometry relative="1" as="geometry" />
        </mxCell>
        <mxCell id="pj7tW2o4S6UGBjeSqYa8-10" value="경험치가 레벨업 필요경험치 이상인가" style="whiteSpace=wrap;html=1;" parent="WIyWlLk6GJQsqaUBKTNV-1" vertex="1">
          <mxGeometry x="160" y="910" width="120" height="60" as="geometry" />
        </mxCell>
        <mxCell id="pj7tW2o4S6UGBjeSqYa8-19" value="" style="edgeStyle=orthogonalEdgeStyle;rounded=0;orthogonalLoop=1;jettySize=auto;html=1;" parent="WIyWlLk6GJQsqaUBKTNV-1" source="pj7tW2o4S6UGBjeSqYa8-16" target="pj7tW2o4S6UGBjeSqYa8-18" edge="1">
          <mxGeometry relative="1" as="geometry" />
        </mxCell>
        <mxCell id="pj7tW2o4S6UGBjeSqYa8-16" value="&lt;div&gt;&amp;nbsp;경험치가 0보다작은가&lt;/div&gt;" style="whiteSpace=wrap;html=1;" parent="WIyWlLk6GJQsqaUBKTNV-1" vertex="1">
          <mxGeometry x="-40" y="910" width="120" height="60" as="geometry" />
        </mxCell>
        <mxCell id="pj7tW2o4S6UGBjeSqYa8-21" value="" style="edgeStyle=orthogonalEdgeStyle;rounded=0;orthogonalLoop=1;jettySize=auto;html=1;" parent="WIyWlLk6GJQsqaUBKTNV-1" source="pj7tW2o4S6UGBjeSqYa8-18" target="pj7tW2o4S6UGBjeSqYa8-20" edge="1">
          <mxGeometry relative="1" as="geometry" />
        </mxCell>
        <mxCell id="pj7tW2o4S6UGBjeSqYa8-18" value="레벨다운&lt;div&gt;&lt;br&gt;&lt;/div&gt;" style="whiteSpace=wrap;html=1;" parent="WIyWlLk6GJQsqaUBKTNV-1" vertex="1">
          <mxGeometry x="-240" y="910" width="120" height="60" as="geometry" />
        </mxCell>
        <mxCell id="pj7tW2o4S6UGBjeSqYa8-46" value="" style="edgeStyle=orthogonalEdgeStyle;rounded=0;orthogonalLoop=1;jettySize=auto;html=1;" parent="WIyWlLk6GJQsqaUBKTNV-1" source="pj7tW2o4S6UGBjeSqYa8-27" target="pj7tW2o4S6UGBjeSqYa8-45" edge="1">
          <mxGeometry relative="1" as="geometry" />
        </mxCell>
        <mxCell id="pj7tW2o4S6UGBjeSqYa8-47" style="edgeStyle=orthogonalEdgeStyle;rounded=0;orthogonalLoop=1;jettySize=auto;html=1;" parent="WIyWlLk6GJQsqaUBKTNV-1" source="pj7tW2o4S6UGBjeSqYa8-20" edge="1">
          <mxGeometry relative="1" as="geometry">
            <mxPoint x="10" y="350" as="targetPoint" />
            <Array as="points">
              <mxPoint x="-370" y="350" />
            </Array>
          </mxGeometry>
        </mxCell>
        <mxCell id="pj7tW2o4S6UGBjeSqYa8-20" value="레벨이 0인가?" style="whiteSpace=wrap;html=1;" parent="WIyWlLk6GJQsqaUBKTNV-1" vertex="1">
          <mxGeometry x="-440" y="910" width="120" height="60" as="geometry" />
        </mxCell>
        <mxCell id="pj7tW2o4S6UGBjeSqYa8-22" value="yes" style="text;html=1;align=center;verticalAlign=middle;whiteSpace=wrap;rounded=0;" parent="WIyWlLk6GJQsqaUBKTNV-1" vertex="1">
          <mxGeometry x="230" y="980" width="60" height="30" as="geometry" />
        </mxCell>
        <mxCell id="pj7tW2o4S6UGBjeSqYa8-23" value="no" style="text;html=1;align=center;verticalAlign=middle;whiteSpace=wrap;rounded=0;" parent="WIyWlLk6GJQsqaUBKTNV-1" vertex="1">
          <mxGeometry x="90" y="890" width="60" height="30" as="geometry" />
        </mxCell>
        <mxCell id="pj7tW2o4S6UGBjeSqYa8-28" value="no" style="text;html=1;align=center;verticalAlign=middle;whiteSpace=wrap;rounded=0;" parent="WIyWlLk6GJQsqaUBKTNV-1" vertex="1">
          <mxGeometry y="815" width="60" height="30" as="geometry" />
        </mxCell>
        <mxCell id="pj7tW2o4S6UGBjeSqYa8-34" value="" style="edgeStyle=orthogonalEdgeStyle;rounded=0;orthogonalLoop=1;jettySize=auto;html=1;" parent="WIyWlLk6GJQsqaUBKTNV-1" source="pj7tW2o4S6UGBjeSqYa8-29" target="pj7tW2o4S6UGBjeSqYa8-33" edge="1">
          <mxGeometry relative="1" as="geometry" />
        </mxCell>
        <mxCell id="pj7tW2o4S6UGBjeSqYa8-29" value="레벨업+" style="rounded=0;whiteSpace=wrap;html=1;" parent="WIyWlLk6GJQsqaUBKTNV-1" vertex="1">
          <mxGeometry x="160" y="1020" width="120" height="60" as="geometry" />
        </mxCell>
        <mxCell id="pj7tW2o4S6UGBjeSqYa8-36" value="" style="edgeStyle=orthogonalEdgeStyle;rounded=0;orthogonalLoop=1;jettySize=auto;html=1;" parent="WIyWlLk6GJQsqaUBKTNV-1" source="pj7tW2o4S6UGBjeSqYa8-31" target="pj7tW2o4S6UGBjeSqYa8-35" edge="1">
          <mxGeometry relative="1" as="geometry" />
        </mxCell>
        <mxCell id="pj7tW2o4S6UGBjeSqYa8-39" style="edgeStyle=orthogonalEdgeStyle;rounded=0;orthogonalLoop=1;jettySize=auto;html=1;exitX=1;exitY=0.5;exitDx=0;exitDy=0;" parent="WIyWlLk6GJQsqaUBKTNV-1" source="pj7tW2o4S6UGBjeSqYa8-33" target="pj7tW2o4S6UGBjeSqYa8-1" edge="1">
          <mxGeometry relative="1" as="geometry">
            <mxPoint x="390" y="340" as="targetPoint" />
            <mxPoint x="334" y="1166.3" as="sourcePoint" />
            <Array as="points">
              <mxPoint x="280" y="1166" />
              <mxPoint x="391" y="1166" />
              <mxPoint x="391" y="340" />
            </Array>
          </mxGeometry>
        </mxCell>
        <mxCell id="pj7tW2o4S6UGBjeSqYa8-33" value="레벨 99인가?" style="whiteSpace=wrap;html=1;rounded=0;" parent="WIyWlLk6GJQsqaUBKTNV-1" vertex="1">
          <mxGeometry x="160" y="1160" width="120" height="60" as="geometry" />
        </mxCell>
        <mxCell id="pj7tW2o4S6UGBjeSqYa8-38" value="" style="edgeStyle=orthogonalEdgeStyle;rounded=0;orthogonalLoop=1;jettySize=auto;html=1;" parent="WIyWlLk6GJQsqaUBKTNV-1" source="pj7tW2o4S6UGBjeSqYa8-35" target="pj7tW2o4S6UGBjeSqYa8-37" edge="1">
          <mxGeometry relative="1" as="geometry" />
        </mxCell>
        <mxCell id="pj7tW2o4S6UGBjeSqYa8-35" value="걸린 턴 출력" style="whiteSpace=wrap;html=1;rounded=0;" parent="WIyWlLk6GJQsqaUBKTNV-1" vertex="1">
          <mxGeometry x="160" y="1300" width="120" height="60" as="geometry" />
        </mxCell>
        <mxCell id="pj7tW2o4S6UGBjeSqYa8-37" value="엔딩" style="whiteSpace=wrap;html=1;rounded=0;" parent="WIyWlLk6GJQsqaUBKTNV-1" vertex="1">
          <mxGeometry x="160" y="1440" width="120" height="60" as="geometry" />
        </mxCell>
        <mxCell id="pj7tW2o4S6UGBjeSqYa8-42" value="no" style="text;html=1;align=center;verticalAlign=middle;whiteSpace=wrap;rounded=0;" parent="WIyWlLk6GJQsqaUBKTNV-1" vertex="1">
          <mxGeometry x="310" y="1130" width="60" height="30" as="geometry" />
        </mxCell>
        <mxCell id="pj7tW2o4S6UGBjeSqYa8-43" value="" style="edgeStyle=orthogonalEdgeStyle;rounded=0;orthogonalLoop=1;jettySize=auto;html=1;" parent="WIyWlLk6GJQsqaUBKTNV-1" source="pj7tW2o4S6UGBjeSqYa8-33" target="pj7tW2o4S6UGBjeSqYa8-31" edge="1">
          <mxGeometry relative="1" as="geometry">
            <mxPoint x="220" y="1220" as="sourcePoint" />
            <mxPoint x="220" y="1300" as="targetPoint" />
          </mxGeometry>
        </mxCell>
        <mxCell id="pj7tW2o4S6UGBjeSqYa8-31" value="yes" style="text;html=1;align=center;verticalAlign=middle;whiteSpace=wrap;rounded=0;" parent="WIyWlLk6GJQsqaUBKTNV-1" vertex="1">
          <mxGeometry x="190" y="1240" width="60" height="30" as="geometry" />
        </mxCell>
        <mxCell id="pj7tW2o4S6UGBjeSqYa8-45" value="배드엔딩 ㅃ" style="whiteSpace=wrap;html=1;" parent="WIyWlLk6GJQsqaUBKTNV-1" vertex="1">
          <mxGeometry x="-640" y="910" width="120" height="60" as="geometry" />
        </mxCell>
        <mxCell id="pj7tW2o4S6UGBjeSqYa8-48" value="yes" style="text;html=1;align=center;verticalAlign=middle;whiteSpace=wrap;rounded=0;" parent="WIyWlLk6GJQsqaUBKTNV-1" vertex="1">
          <mxGeometry x="-100" y="900" width="60" height="30" as="geometry" />
        </mxCell>
        <mxCell id="pj7tW2o4S6UGBjeSqYa8-49" value="" style="edgeStyle=orthogonalEdgeStyle;rounded=0;orthogonalLoop=1;jettySize=auto;html=1;" parent="WIyWlLk6GJQsqaUBKTNV-1" source="pj7tW2o4S6UGBjeSqYa8-20" target="pj7tW2o4S6UGBjeSqYa8-27" edge="1">
          <mxGeometry relative="1" as="geometry">
            <mxPoint x="-440" y="940" as="sourcePoint" />
            <mxPoint x="-520" y="940" as="targetPoint" />
          </mxGeometry>
        </mxCell>
        <mxCell id="pj7tW2o4S6UGBjeSqYa8-27" value="yes" style="text;html=1;align=center;verticalAlign=middle;whiteSpace=wrap;rounded=0;" parent="WIyWlLk6GJQsqaUBKTNV-1" vertex="1">
          <mxGeometry x="-510" y="920" width="60" height="30" as="geometry" />
        </mxCell>
        <mxCell id="pj7tW2o4S6UGBjeSqYa8-50" value="no" style="text;html=1;align=center;verticalAlign=middle;whiteSpace=wrap;rounded=0;" parent="WIyWlLk6GJQsqaUBKTNV-1" vertex="1">
          <mxGeometry x="-350" y="845" width="60" height="30" as="geometry" />
        </mxCell>
        <mxCell id="pj7tW2o4S6UGBjeSqYa8-51" value="" style="endArrow=classic;html=1;rounded=0;entryX=0;entryY=0.5;entryDx=0;entryDy=0;" parent="WIyWlLk6GJQsqaUBKTNV-1" target="pj7tW2o4S6UGBjeSqYa8-1" edge="1">
          <mxGeometry width="50" height="50" relative="1" as="geometry">
            <mxPoint x="10" y="910" as="sourcePoint" />
            <mxPoint x="60" y="860" as="targetPoint" />
            <Array as="points">
              <mxPoint x="10" y="350" />
            </Array>
          </mxGeometry>
        </mxCell>
      </root>
    </mxGraphModel>
  </diagram>
</mxfile>
